<svg width="26" height="26" viewBox="0 0 26 26" fill="none" xmlns="http://www.w3.org/2000/svg">
<g clip-path="url(#clip0_5860_11317)">
<path d="M26 13C26 5.8203 20.1797 0 13 0C5.8203 0 0 5.8203 0 13C0 20.1797 5.8203 26 13 26C20.1797 26 26 20.1797 26 13Z" fill="#E8F1FC"/>
<g clip-path="url(#clip1_5860_11317)">
<path d="M17.3566 13.7585C17.0038 13.7538 16.6535 13.8192 16.3262 13.9509C15.9988 14.0826 15.7009 14.2781 15.4497 14.5259C15.1985 14.7737 14.9991 15.0689 14.863 15.3945C14.7268 15.72 14.6567 16.0694 14.6567 16.4222C14.6567 16.7751 14.7268 17.1244 14.863 17.4499C14.9991 17.7755 15.1985 18.0707 15.4497 18.3185C15.7009 18.5664 15.9988 18.7618 16.3262 18.8935C16.6535 19.0253 17.0038 19.0906 17.3566 19.0859C18.0568 19.0764 18.7252 18.7916 19.217 18.2931C19.7088 17.7946 19.9846 17.1225 19.9846 16.4222C19.9846 15.7219 19.7088 15.0498 19.217 14.5513C18.7252 14.0528 18.0568 13.768 17.3566 13.7585ZM18.536 16.309L17.2354 17.3565C17.1903 17.3927 17.1386 17.4196 17.0831 17.4356C17.0276 17.4516 16.9695 17.4565 16.9121 17.4499C16.8547 17.4433 16.7992 17.4254 16.7488 17.3972C16.6984 17.3691 16.6541 17.3311 16.6185 17.2857L16.1073 16.6339C16.0414 16.5424 16.0135 16.429 16.0292 16.3174C16.045 16.2057 16.1033 16.1045 16.192 16.0349C16.2807 15.9652 16.3928 15.9326 16.505 15.9437C16.6172 15.9548 16.7208 16.0089 16.794 16.0946L17.0321 16.3987L17.9885 15.6281C18.0332 15.5921 18.0846 15.5653 18.1396 15.5492C18.1947 15.5331 18.2524 15.528 18.3094 15.5342C18.3664 15.5404 18.4217 15.5578 18.472 15.5853C18.5224 15.6129 18.5668 15.6501 18.6027 15.6948C18.6387 15.7395 18.6655 15.7908 18.6816 15.8459C18.6977 15.9009 18.7028 15.9586 18.6966 16.0157C18.6904 16.0727 18.673 16.128 18.6455 16.1783C18.6179 16.2286 18.5807 16.273 18.536 16.309Z" fill="#3986E5"/>
<path d="M13.9656 16.4227C13.9665 15.5235 14.3241 14.6615 14.9599 14.0256C15.5957 13.3898 16.4578 13.0322 17.3569 13.0313C17.9782 13.0313 18.5592 13.2021 19.0606 13.495V9.12981C19.0606 8.60118 18.8506 8.0942 18.4768 7.7204C18.103 7.3466 17.596 7.1366 17.0674 7.1366H16.0199V6.91352C16.0199 6.67104 15.8211 6.47705 15.5834 6.47705C15.3409 6.47705 15.147 6.67104 15.147 6.91352V7.1366H9.92389V6.91352C9.92389 6.67104 9.7299 6.47705 9.48742 6.47705C9.24493 6.47705 9.05095 6.67104 9.05095 6.91352V7.1366H7.99858C7.46995 7.1366 6.96297 7.3466 6.58917 7.7204C6.21537 8.0942 6.00537 8.60118 6.00537 9.12981V16.2782C6.00537 16.8068 6.21537 17.3138 6.58917 17.6876C6.96297 18.0614 7.46995 18.2714 7.99858 18.2714H14.5175C14.1573 17.7221 13.9655 17.0795 13.9656 16.4227ZM15.6712 11.1783C15.7374 11.1783 15.8029 11.1913 15.864 11.2167C15.9252 11.242 15.9807 11.2791 16.0275 11.3259C16.0743 11.3727 16.1114 11.4282 16.1367 11.4894C16.162 11.5505 16.1751 11.616 16.1751 11.6822C16.1751 11.7483 16.162 11.8139 16.1367 11.875C16.1114 11.9361 16.0743 11.9917 16.0275 12.0385C15.9807 12.0853 15.9252 12.1224 15.864 12.1477C15.8029 12.173 15.7374 12.1861 15.6712 12.1861C15.5376 12.1861 15.4094 12.133 15.3149 12.0385C15.2204 11.944 15.1673 11.8158 15.1673 11.6822C15.1673 11.5485 15.2204 11.4204 15.3149 11.3259C15.4094 11.2314 15.5376 11.1783 15.6712 11.1783ZM9.39721 14.9314C9.26358 14.9314 9.13541 14.8784 9.04092 14.7839C8.94642 14.6894 8.89334 14.5612 8.89334 14.4276C8.89334 14.2939 8.94642 14.1658 9.04092 14.0713C9.13541 13.9768 9.26358 13.9237 9.39721 13.9237C9.53085 13.9237 9.65901 13.9768 9.75351 14.0713C9.84801 14.1658 9.90109 14.2939 9.90109 14.4276C9.90109 14.5612 9.84801 14.6894 9.75351 14.7839C9.65901 14.8784 9.53085 14.9314 9.39721 14.9314ZM9.39721 12.1861C9.33104 12.1861 9.26552 12.173 9.20439 12.1477C9.14325 12.1224 9.08771 12.0853 9.04092 12.0385C8.99413 11.9917 8.95701 11.9361 8.93169 11.875C8.90637 11.8139 8.89334 11.7483 8.89334 11.6822C8.89334 11.616 8.90637 11.5505 8.93169 11.4894C8.95701 11.4282 8.99413 11.3727 9.04092 11.3259C9.08771 11.2791 9.14325 11.242 9.20439 11.2167C9.26552 11.1913 9.33104 11.1783 9.39721 11.1783C9.53085 11.1783 9.65901 11.2314 9.75351 11.3259C9.84801 11.4204 9.90109 11.5485 9.90109 11.6822C9.90109 11.8158 9.84801 11.944 9.75351 12.0385C9.65901 12.133 9.53085 12.1861 9.39721 12.1861ZM12.5344 14.9314C12.4008 14.9314 12.2726 14.8784 12.1782 14.7839C12.0837 14.6894 12.0306 14.5612 12.0306 14.4276C12.0306 14.2939 12.0837 14.1658 12.1782 14.0713C12.2726 13.9768 12.4008 13.9237 12.5344 13.9237C12.6681 13.9237 12.7962 13.9768 12.8907 14.0713C12.9852 14.1658 13.0383 14.2939 13.0383 14.4276C13.0383 14.5612 12.9852 14.6894 12.8907 14.7839C12.7962 14.8784 12.6681 14.9314 12.5344 14.9314ZM12.5344 12.1861C12.4683 12.1861 12.4028 12.173 12.3416 12.1477C12.2805 12.1224 12.2249 12.0853 12.1782 12.0385C12.1314 11.9917 12.0942 11.9361 12.0689 11.875C12.0436 11.8139 12.0306 11.7483 12.0306 11.6822C12.0306 11.616 12.0436 11.5505 12.0689 11.4894C12.0942 11.4282 12.1314 11.3727 12.1782 11.3259C12.2249 11.2791 12.2805 11.242 12.3416 11.2167C12.4028 11.1913 12.4683 11.1783 12.5344 11.1783C12.6681 11.1783 12.7962 11.2314 12.8907 11.3259C12.9852 11.4204 13.0383 11.5485 13.0383 11.6822C13.0383 11.8158 12.9852 11.944 12.8907 12.0385C12.7962 12.133 12.6681 12.1861 12.5344 12.1861Z" fill="#3986E5"/>
</g>
</g>
<defs>
<clipPath id="clip0_5860_11317">
<rect width="26" height="26" fill="white"/>
</clipPath>
<clipPath id="clip1_5860_11317">
<rect width="14" height="14" fill="white" transform="translate(6 6)"/>
</clipPath>
</defs>
</svg>
