<svg width="24" height="24" viewBox="0 0 24 24" fill="none" xmlns="http://www.w3.org/2000/svg">
<path d="M4.04015 18.5324H19.9607C20.9152 18.5324 21.4779 18.0404 21.4779 17.317C21.4779 16.3124 20.463 15.4085 19.5892 14.5145C18.9262 13.8215 18.7453 12.3953 18.675 11.2403C18.5949 7.38311 17.5804 4.72125 14.8984 3.75696C14.5269 2.45111 13.482 1.40625 12.0056 1.40625C10.5184 1.40625 9.48429 2.45111 9.10244 3.75696C6.43072 4.72125 5.40601 7.38268 5.33572 11.2398C5.25558 12.3953 5.08458 13.8215 4.41172 14.5145C3.54772 15.4085 2.52344 16.3124 2.52344 17.3174C2.52344 18.0404 3.09601 18.5324 4.04015 18.5324ZM8.94172 19.8987C9.06258 21.3653 10.2977 22.5901 12.0056 22.5901C13.7027 22.5901 14.9383 21.3653 15.069 19.8987H8.94172Z" fill="#3886E5"/>
</svg>
