<svg width="26" height="26" viewBox="0 0 26 26" fill="none" xmlns="http://www.w3.org/2000/svg">
<rect width="26" height="26" rx="13" fill="#E8F1FC"/>
<g clip-path="url(#clip0_1456_23189)">
<path d="M18.7498 10.9574C18.5816 9.6234 17.9361 8.39271 16.9218 7.4787C15.8635 6.52514 14.4935 6 13.064 6C11.6388 6 10.2719 6.52221 9.215 7.47041C8.20533 8.37634 7.55854 9.59655 7.38245 10.9207C6.58371 11.112 6 11.831 6 12.6565V14.3161C6 15.301 6.81093 16.1022 7.80775 16.1022C8.80459 16.1022 9.61553 15.301 9.61553 14.3161V12.6565C9.61553 12.0064 9.25623 11.4101 8.68811 11.0966C8.97161 8.92305 10.8277 7.30145 13.064 7.30145C15.2713 7.30145 17.1212 8.89614 17.4313 11.0364C16.7986 11.3266 16.3845 11.9575 16.3845 12.6565V14.3162C16.3845 14.9784 16.7476 15.5731 17.3255 15.8837C15.9608 18.7749 13.2281 18.7921 12.8015 18.6592C12.6897 18.4367 12.4912 18.2654 12.2491 18.1883C12.2491 18.1883 11.4715 17.9111 11.2335 17.9113C10.8249 17.9115 10.4661 18.1694 10.3405 18.5537C10.1817 19.0401 10.453 19.564 10.9453 19.7215C10.9453 19.7215 11.5762 19.9733 11.9603 19.9983C12.2844 20.0195 12.5813 19.8342 12.7516 19.5697C15.4018 19.7863 17.4047 18.1884 18.2315 16.1018C19.2103 16.0813 20 15.2882 20 14.3162V12.6565C20 11.8719 19.4932 11.1935 18.7498 10.9574Z" fill="#3886E5"/>
</g>
<defs>
<clipPath id="clip0_1456_23189">
<rect width="14" height="14" fill="white" transform="translate(6 6)"/>
</clipPath>
</defs>
</svg>
